{
	"asset":{
		"generator":"Khronos glTF Blender I/O v5.0.21",
		"version":"2.0"
	},
	"scene":0,
	"scenes":[
		{
			"name":"Scene",
			"nodes":[
				0
			]
		}
	],
	"nodes":[
		{
			"mesh":0,
			"name":"Radio",
			"rotation":[
				0.7071068286895752,
				0,
				0,
				0.7071068286895752
			],
			"translation":[
				-3.812968861893751e-05,
				0.8872254490852356,
				-0.0004736062837764621
			]
		}
	],
	"materials":[
		{
			"doubleSided":true,
			"name":"metal",
			"pbrMetallicRoughness":{
				"baseColorFactor":[
					0.625,
					0.625,
					0.625,
					1
				],
				"metallicFactor":0,
				"roughnessFactor":0.5
			}
		},
		{
			"doubleSided":true,
			"name":"lambert4",
			"pbrMetallicRoughness":{
				"baseColorFactor":[
					0,
					0,
					0,
					1
				],
				"metallicFactor":0,
				"roughnessFactor":0.5
			}
		},
		{
			"doubleSided":true,
			"name":"metal2",
			"pbrMetallicRoughness":{
				"baseColorFactor":[
					0.34481701254844666,
					0.3496842086315155,
					0.3869999945163727,
					1
				],
				"metallicFactor":0,
				"roughnessFactor":0.5
			}
		},
		{
			"doubleSided":true,
			"name":"radio",
			"pbrMetallicRoughness":{
				"baseColorFactor":[
					0.2840000092983246,
					0.08747201412916183,
					0.08747201412916183,
					1
				],
				"metallicFactor":0,
				"roughnessFactor":0.5
			}
		},
		{
			"doubleSided":true,
			"name":"lambert1",
			"pbrMetallicRoughness":{
				"baseColorFactor":[
					0.5,
					0.5,
					0.5,
					1
				],
				"metallicFactor":0,
				"roughnessFactor":0.5
			}
		}
	],
	"meshes":[
		{
			"name":"Mesh",
			"primitives":[
				{
					"attributes":{
						"POSITION":0,
						"NORMAL":1,
						"TEXCOORD_0":2
					},
					"indices":3,
					"material":0
				},
				{
					"attributes":{
						"POSITION":4,
						"NORMAL":5,
						"TEXCOORD_0":6
					},
					"indices":7,
					"material":1
				},
				{
					"attributes":{
						"POSITION":8,
						"NORMAL":9,
						"TEXCOORD_0":10
					},
					"indices":11,
					"material":2
				},
				{
					"attributes":{
						"POSITION":12,
						"NORMAL":13,
						"TEXCOORD_0":14
					},
					"indices":15,
					"material":3
				},
				{
					"attributes":{
						"POSITION":16,
						"NORMAL":17,
						"TEXCOORD_0":18
					},
					"indices":19,
					"material":4
				}
			]
		}
	],
	"accessors":[
		{
			"bufferView":0,
			"componentType":5126,
			"count":352,
			"max":[
				1.1935911178588867,
				0.19648781418800354,
				0.10180366039276123
			],
			"min":[
				-1.1935911178588867,
				-0.10754755139350891,
				-0.6152684688568115
			],
			"type":"VEC3"
		},
		{
			"bufferView":1,
			"componentType":5126,
			"count":352,
			"type":"VEC3"
		},
		{
			"bufferView":2,
			"componentType":5126,
			"count":352,
			"type":"VEC2"
		},
		{
			"bufferView":3,
			"componentType":5123,
			"count":912,
			"type":"SCALAR"
		},
		{
			"bufferView":4,
			"componentType":5126,
			"count":233,
			"max":[
				1.0012294054031372,
				0.3843742311000824,
				0.760274350643158
			],
			"min":[
				-0.9695270657539368,
				0.13052859902381897,
				-0.1068122386932373
			],
			"type":"VEC3"
		},
		{
			"bufferView":5,
			"componentType":5126,
			"count":233,
			"type":"VEC3"
		},
		{
			"bufferView":6,
			"componentType":5126,
			"count":233,
			"type":"VEC2"
		},
		{
			"bufferView":7,
			"componentType":5123,
			"count":675,
			"type":"SCALAR"
		},
		{
			"bufferView":8,
			"componentType":5126,
			"count":543,
			"max":[
				1.174304485321045,
				0.3843742311000824,
				0.9694631099700928
			],
			"min":[
				-1.1666784286499023,
				-0.2639543116092682,
				-0.9694631099700928
			],
			"type":"VEC3"
		},
		{
			"bufferView":9,
			"componentType":5126,
			"count":543,
			"type":"VEC3"
		},
		{
			"bufferView":10,
			"componentType":5126,
			"count":543,
			"type":"VEC2"
		},
		{
			"bufferView":11,
			"componentType":5123,
			"count":1425,
			"type":"SCALAR"
		},
		{
			"bufferView":12,
			"componentType":5126,
			"count":547,
			"max":[
				1.1061387062072754,
				0.2777736485004425,
				0.8370798826217651
			],
			"min":[
				-1.0985126495361328,
				-0.3843742311000824,
				-0.5474711656570435
			],
			"type":"VEC3"
		},
		{
			"bufferView":13,
			"componentType":5126,
			"count":547,
			"type":"VEC3"
		},
		{
			"bufferView":14,
			"componentType":5126,
			"count":547,
			"type":"VEC2"
		},
		{
			"bufferView":15,
			"componentType":5123,
			"count":1890,
			"type":"SCALAR"
		},
		{
			"bufferView":16,
			"componentType":5126,
			"count":116,
			"max":[
				0.7796827554702759,
				-0.3626471161842346,
				-0.14513719081878662
			],
			"min":[
				-0.7720568180084229,
				-0.3843742311000824,
				-0.31876373291015625
			],
			"type":"VEC3"
		},
		{
			"bufferView":17,
			"componentType":5126,
			"count":116,
			"type":"VEC3"
		},
		{
			"bufferView":18,
			"componentType":5126,
			"count":116,
			"type":"VEC2"
		},
		{
			"bufferView":19,
			"componentType":5123,
			"count":312,
			"type":"SCALAR"
		}
	],
	"bufferViews":[
		{
			"buffer":0,
			"byteLength":4224,
			"byteOffset":0,
			"target":34962
		},
		{
			"buffer":0,
			"byteLength":4224,
			"byteOffset":4224,
			"target":34962
		},
		{
			"buffer":0,
			"byteLength":2816,
			"byteOffset":8448,
			"target":34962
		},
		{
			"buffer":0,
			"byteLength":1824,
			"byteOffset":11264,
			"target":34963
		},
		{
			"buffer":0,
			"byteLength":2796,
			"byteOffset":13088,
			"target":34962
		},
		{
			"buffer":0,
			"byteLength":2796,
			"byteOffset":15884,
			"target":34962
		},
		{
			"buffer":0,
			"byteLength":1864,
			"byteOffset":18680,
			"target":34962
		},
		{
			"buffer":0,
			"byteLength":1350,
			"byteOffset":20544,
			"target":34963
		},
		{
			"buffer":0,
			"byteLength":6516,
			"byteOffset":21896,
			"target":34962
		},
		{
			"buffer":0,
			"byteLength":6516,
			"byteOffset":28412,
			"target":34962
		},
		{
			"buffer":0,
			"byteLength":4344,
			"byteOffset":34928,
			"target":34962
		},
		{
			"buffer":0,
			"byteLength":2850,
			"byteOffset":39272,
			"target":34963
		},
		{
			"buffer":0,
			"byteLength":6564,
			"byteOffset":42124,
			"target":34962
		},
		{
			"buffer":0,
			"byteLength":6564,
			"byteOffset":48688,
			"target":34962
		},
		{
			"buffer":0,
			"byteLength":4376,
			"byteOffset":55252,
			"target":34962
		},
		{
			"buffer":0,
			"byteLength":3780,
			"byteOffset":59628,
			"target":34963
		},
		{
			"buffer":0,
			"byteLength":1392,
			"byteOffset":63408,
			"target":34962
		},
		{
			"buffer":0,
			"byteLength":1392,
			"byteOffset":64800,
			"target":34962
		},
		{
			"buffer":0,
			"byteLength":928,
			"byteOffset":66192,
			"target":34962
		},
		{
			"buffer":0,
			"byteLength":624,
			"byteOffset":67120,
			"target":34963
		}
	],
	"buffers":[
		{
			"byteLength":67744,
			"uri":"Radio.bin"
		}
	]
}
